<svg width="60" height="60" viewBox="0 0 60 60" fill="none" xmlns="http://www.w3.org/2000/svg">
<rect x="0.5" y="0.5" width="59" height="59" rx="29.5" stroke="#CB7D26"/>
<g clip-path="url(#clip0_203_2)">
<path d="M30.5127 45.7885L37.7853 38.5159C38.0904 38.2547 38.1259 37.7956 37.8646 37.4905C37.6034 37.1855 37.1443 37.1499 36.8392 37.4112C36.8108 37.4356 36.7842 37.4621 36.7599 37.4905L30.7236 43.5195L30.7236 14.7272C30.7236 14.3256 30.398 14 29.9963 14C29.5947 14 29.2691 14.3256 29.2691 14.7272L29.2691 43.5195L23.2401 37.4905C22.9789 37.1855 22.5198 37.1499 22.2147 37.4112C21.9097 37.6725 21.8741 38.1316 22.1354 38.4366C22.1598 38.4651 22.1863 38.4916 22.2147 38.5159L29.4873 45.7886C29.7709 46.0705 30.229 46.0705 30.5127 45.7885Z" fill="#CB7D26"/>
</g>
<defs>
<clipPath id="clip0_203_2">
<rect width="32" height="32" fill="white" transform="translate(46 14) rotate(90)"/>
</clipPath>
</defs>
</svg>
