<svg width="169" height="36" viewBox="0 0 169 36" fill="none" xmlns="http://www.w3.org/2000/svg">
<path d="M14.91 5.844V36H10.878V9.498H5.922V30.918C5.922 34.306 4.368 36 1.26 36H0V32.346H0.084C1.288 32.346 1.89 31.618 1.89 30.162V5.844H14.91ZM27.0644 9.624V5.844H31.0964V36H27.0644V20.124L22.7384 31.674V36H18.7064V5.844H22.7384V22.098L27.0644 9.624ZM41.2926 9.498V36H37.2606V9.498H33.3966V5.844H45.1566V9.498H41.2926ZM47.4584 36V5.844H57.4544V9.498H51.4904V18.654H56.7824V22.308H51.4904V32.346H57.4544V36H47.4584ZM68.6953 9.624V5.844H72.7273V36H68.6953V20.124L64.3693 31.674V36H60.3373V5.844H64.3693V22.098L68.6953 9.624ZM64.7473 0.215998C64.8873 0.943998 65.0833 1.49 65.3353 1.854C65.5873 2.218 65.9793 2.4 66.5113 2.4C66.9593 2.4 67.3373 2.218 67.6453 1.854C67.9533 1.49 68.1493 0.943998 68.2333 0.215998H70.7113C70.4873 1.84 69.9413 3.03 69.0733 3.786C68.2333 4.514 67.3793 4.878 66.5113 4.878C65.5313 4.878 64.6213 4.514 63.7813 3.786C62.9413 3.03 62.4513 1.84 62.3113 0.215998H64.7473ZM80.5294 21.048C81.2854 20.152 81.8174 19.172 82.1254 18.108C82.4614 17.016 82.6994 15.924 82.8394 14.832C83.0074 13.712 83.1614 12.634 83.3014 11.598C83.4414 10.562 83.7074 9.638 84.0994 8.826C84.4914 7.986 85.0654 7.3 85.8214 6.768C86.5774 6.236 87.6694 5.928 89.0974 5.844V9.54C88.2854 9.54 87.7394 9.96 87.4594 10.8C87.2074 11.612 86.9974 12.62 86.8294 13.824C86.6614 15.028 86.4234 16.316 86.1154 17.688C85.8354 19.032 85.2614 20.222 84.3934 21.258L89.4754 36H85.4434L80.5294 21.3V36H76.4974V5.844H80.5294V21.048ZM95.1671 36H91.1351V11.01C91.1351 7.566 92.7451 5.844 95.9651 5.844H98.9891C102.209 5.844 103.819 7.566 103.819 11.01V36H99.7871V24.954H95.1671V36ZM99.7871 21.3V11.262C99.7871 10.086 99.1991 9.498 98.0231 9.498H96.9311C95.7551 9.498 95.1671 10.086 95.1671 11.262V21.3H99.7871ZM111.036 30.876V36H106.752V30.876H111.036Z" fill="#242424"/>
<path d="M114.191 36V5.844H118.223V32.346H123.179V5.844H127.211V32.346H132.167V5.844H136.199V36H114.191ZM144.323 36C141.075 36 139.451 34.292 139.451 30.876V11.01C139.451 7.566 141.061 5.844 144.281 5.844H148.145C151.365 5.844 152.975 7.566 152.975 11.01V30.876C152.975 34.292 151.351 36 148.103 36H144.323ZM145.289 32.346H147.347C148.411 32.346 148.943 31.758 148.943 30.582V11.262C148.943 10.086 148.341 9.498 147.137 9.498H145.247C144.071 9.498 143.483 10.086 143.483 11.262V30.582C143.483 31.758 144.085 32.346 145.289 32.346ZM162.104 18.234L165.002 5.844H168.992L161.768 36H157.526L160.004 26.172L155.132 5.844H159.122L161.978 18.234H162.104Z" fill="#CB7D26"/>
</svg>
