<svg width="16" height="16" viewBox="0 0 16 16" fill="none" xmlns="http://www.w3.org/2000/svg">
<g clip-path="url(#clip0_52_71)">
<path d="M13.656 2.34217C10.5314 -0.781548 5.46601 -0.780798 2.34229 2.34389C-0.781426 5.46858 -0.780676 10.5339 2.34401 13.6576C5.4687 16.7813 10.534 16.7806 13.6577 13.6559C15.1579 12.1552 16.0005 10.1201 16 7.99817C15.9996 5.87661 15.1564 3.84211 13.656 2.34217ZM12.1157 11.1438C12.1154 11.1441 12.115 11.1445 12.1147 11.1449V11.1422L11.7093 11.5449C11.1851 12.0757 10.4216 12.2941 9.69598 12.1209C8.96489 11.9252 8.26989 11.6137 7.63732 11.1982C7.04964 10.8226 6.50501 10.3835 6.01332 9.88886C5.56092 9.43976 5.15448 8.94664 4.79998 8.41686C4.41223 7.8468 4.10532 7.2258 3.88798 6.57152C3.63882 5.80289 3.84529 4.95948 4.42132 4.39286L4.89598 3.9182C5.02795 3.78564 5.24239 3.78517 5.37492 3.91714C5.37526 3.91748 5.37564 3.91783 5.37598 3.9182L6.87464 5.41686C7.0072 5.54883 7.00767 5.76327 6.8757 5.8958C6.87536 5.89614 6.87501 5.89648 6.87464 5.89686L5.99464 6.77686C5.74214 7.02661 5.71039 7.42348 5.91998 7.7102C6.23826 8.14701 6.59048 8.55805 6.97332 8.93955C7.40017 9.36823 7.8642 9.7582 8.35998 10.1049C8.64645 10.3047 9.03482 10.271 9.28264 10.0249L10.1333 9.16089C10.2653 9.02833 10.4797 9.02786 10.6122 9.15983C10.6126 9.16017 10.6129 9.16051 10.6133 9.16089L12.1146 10.6649C12.2472 10.7968 12.2477 11.0112 12.1157 11.1438Z" fill="#CB7D26"/>
</g>
<defs>
<clipPath id="clip0_52_71">
<rect width="16" height="16" fill="white"/>
</clipPath>
</defs>
</svg>
