<svg width="615" height="795" viewBox="0 0 615 795" fill="none" xmlns="http://www.w3.org/2000/svg">
<g clip-path="url(#clip0_52_11)">
<path opacity="0.5" d="M449.381 93.1304C467.653 98.3267 461.01 133.903 458.198 148.014C451.638 179.828 450.323 197.571 476.797 218.405C510.745 245.174 511.947 260.307 504.75 300.886C498.704 335.691 530.338 343.994 531.717 373.833C532.622 393.797 523.249 436.387 512.798 453.2C494.541 482.461 457.104 479.893 428.074 474.109C397.764 468.071 368.213 442.622 336.243 447.145C308.413 450.937 284.434 476.613 273.047 500.352C259.271 529.394 272.947 565.462 253.492 589.594C221.622 629.258 149.428 606.206 111.941 587.179C115.304 564.731 108.336 542.893 105.893 520.622C101.907 482.706 103.554 439.91 109.3 402.154C114.748 365.896 119.509 318.608 138.534 287.721C157.516 257.048 180.256 227.569 200.476 197.365C210.544 182.477 222.319 167.929 231.191 152.358C243.22 130.97 243.082 109.381 251.055 87.1842C280.816 5.75437 400.625 76.0815 449.381 93.1304Z" fill="#E7D9D3"/>
</g>
<defs>
<clipPath id="clip0_52_11">
<rect width="508" height="709" fill="white" transform="matrix(-0.980726 -0.195386 -0.195386 0.980726 637.369 99.4604)"/>
</clipPath>
</defs>
</svg>
