<svg width="783" height="794" viewBox="0 0 783 794" fill="none" xmlns="http://www.w3.org/2000/svg">
<path opacity="0.5" d="M549.781 120.015C568.461 180.908 496.198 182.118 467.107 209.078C428.513 244.59 456.279 300.972 395.774 320.173C368.33 328.928 349.488 322.459 324.387 343.703C306.22 359.307 290.749 381.765 267.036 389.541C238.401 398.854 169.942 389.566 140.803 379.546C124.608 373.802 86.6277 324.086 69.2685 347.258C85.0668 365.664 104.1 383.495 118.475 404.704C124.78 413.97 126.427 426.615 137.267 435.893C152.118 448.077 169.905 447.179 188.378 457.24C202.995 465.09 215.297 488.809 228.551 494.478C246.604 502 259.074 484.451 278.327 473.722C310.086 456.11 333.755 455.361 365.964 475.223C393.062 491.839 397.462 499.776 427.454 479.487C476.978 445.776 457.715 399.34 465.945 350.279C468.462 334.659 475.993 316.603 484.27 304.522C499.942 282.311 495.501 287.981 514.948 295.192C532.645 301.77 541.445 317.644 557.858 325.679C583.732 338.766 615.847 322.098 641.147 331.951C666.895 341.85 717.319 420.517 753.044 375.41C780.429 340.789 688.927 242.485 666.778 215.262C644.877 187.837 598.817 106.442 549.781 120.015Z" fill="#E7D9D3"/>
<path d="M684.975 616.381C669.984 644.74 595.951 655.723 565.158 644.59C536.216 634.433 529.92 602.326 506.342 589.482C477.069 573.237 452.282 593.269 420.446 593.808C392.201 594.27 369.455 579.106 341.826 579.894C276.09 582.641 241.395 640.813 188.59 575.08C136.547 510.143 178.425 458.525 186.278 386.968C193.735 319.146 143.607 245.363 241.164 221.961C259.493 246.227 239.448 256.541 237.653 280.827C236.003 305.584 241.382 323.013 249.739 346.746C262.092 380.079 272.884 461.875 317.157 463.172C334.495 420.675 363.311 457.182 390.935 449.688C424.36 440.92 422.591 401.741 430.729 372.918C454.635 288.152 508.982 230.106 599.976 207.181C613.311 245.371 624.435 284.759 636.356 323.384C656.419 388.389 660.373 441.34 669.993 505.956C674.765 536.47 708.524 588.992 684.975 616.381Z" fill="#FBEAD7"/>
<g clip-path="url(#clip0_203_6)">
<path d="M272.344 572.505C272.295 568.134 272.457 563.493 272.14 558.912C271.569 536.364 270.906 515.044 295.14 498.453C302.338 493.679 310.274 492.949 318.209 492.219C328.331 491.464 337.704 490.558 344.736 480.454C350.927 471.426 351.212 453.881 351.077 436.874C351.186 417.891 351.446 398.161 359.705 388.149C374.962 369.741 414.137 387.797 437.552 398.301C440.124 399.445 442.427 400.379 444.52 401.581C449.395 403.659 453.521 405.585 457.379 407.3C493.175 423.582 497.57 425.718 520.672 383.974C522.868 380.056 525.274 375.87 526.99 372.012C537.128 353.502 545.221 338.16 558.521 335.557C567.777 333.692 579.023 338.15 593.334 349.77L592.283 351.115C578.241 339.705 567.743 335.399 558.966 337.204C546.145 339.75 538.472 354.553 528.604 373.273C526.408 377.19 524.481 381.318 522.285 385.235C498.343 428.056 492.93 425.558 456.865 409.066C453.008 407.35 448.612 405.214 444.006 403.347C441.703 402.413 439.611 401.211 437.039 400.067C414.102 389.504 375.735 372.078 361.319 389.411C353.27 399.153 352.951 418.405 353.052 437.118C352.826 455.143 352.961 472.15 346.35 481.716C338.897 492.357 328.566 493.381 318.713 494.346C311.256 495.018 303.531 495.479 296.812 500.194C273.209 515.978 273.872 537.298 274.384 559.366C274.432 563.737 274.75 568.319 274.588 572.96C274.215 601.703 267.221 620.071 254.053 629.711C231.466 645.857 193.954 633.433 157.517 621.851C152.97 620.463 148.423 619.075 144.086 617.418C126.645 612.018 114.421 615.463 100.128 619.891C90.0309 622.831 79.9336 625.772 67.0886 626.131C47.4762 626.834 34.3824 619.198 18.9856 610.629C13.2454 607.442 7.50522 604.255 1.28585 601.126L0.841021 599.478C7.53958 602.548 13.2798 605.735 18.8097 609.191C33.9376 617.55 46.7625 624.976 65.8956 624.332C78.7407 623.973 88.8379 621.032 98.456 618.15C112.538 613.991 125.931 610.16 143.641 615.77C148.188 617.158 152.736 618.546 157.073 620.203C193.03 631.844 230.004 643.847 251.96 628.509" fill="#8D7B76"/>
</g>
<defs>
<clipPath id="clip0_203_6">
<rect width="313" height="563" fill="white" transform="translate(346.74 157) rotate(38.0158)"/>
</clipPath>
</defs>
</svg>
