<svg width="835" height="812" viewBox="0 0 835 812" fill="none" xmlns="http://www.w3.org/2000/svg">
<path opacity="0.5" d="M73.287 244.457C109.017 329.977 191.011 264.121 248.641 267.234C324.86 271.081 346.226 360.001 431.795 325.215C470.649 309.488 485.719 284.724 533.567 285.153C568.411 285.718 606.612 296.462 640.381 283.11C681.088 266.899 749.061 192.833 772.351 154.518C785.133 133.028 781.396 42.0672 822.374 51.8538C821.814 87.1452 817.097 124.801 820.736 161.906C822.299 178.14 832.217 193.822 828.715 214.287C823.427 241.735 802.687 257.273 791.371 285.712C782.315 308.093 790.608 346.077 781.048 364.748C767.841 389.958 737.564 381.917 706.04 387.817C654.118 397.645 626.934 418.821 609.363 471.004C594.491 514.802 596.949 527.776 544.515 532.967C457.74 541.301 436.108 471.42 381.269 424.171C363.924 409.03 338.703 395.829 318.204 390.007C280.008 379.728 290.25 381.942 275.195 408.099C261.508 431.92 266.424 457.869 255.529 482.126C238.747 520.836 187.304 532.052 168.156 566.609C148.548 601.635 165.285 736.567 83.3524 719.315C20.5063 706.042 31.476 510.928 30.943 459.863C29.9456 408.802 5.78733 274.876 73.287 244.457Z" fill="#E7D9D3"/>
<path d="M772.281 515.817C763.964 551.398 685.569 584.908 648.422 581.546C613.596 578.725 597.374 545.169 567.682 537.836C530.731 528.401 509.213 557.641 474.292 567.44C443.305 576.118 413.858 565.987 383.644 574.845C312.009 596.881 290.604 671.008 213.415 613.852C137.295 557.354 168.511 488.37 156.471 407.257C145.074 330.373 68.5069 263.575 169.229 209.579C196.441 231.016 177.339 248.176 182.383 275.454C187.725 303.209 198.691 320.856 214.762 344.588C238.011 377.744 273.555 464.746 322.711 453.373C329.525 401.536 371.832 433.427 400.102 417.182C434.394 397.855 421.115 355.199 421.746 321.088C423.574 220.779 466.669 141.107 560.299 89.5358C586.035 127.757 609.681 167.939 633.985 207.05C674.888 272.871 694.557 330.069 723.841 398.482C737.922 430.723 790.307 478.831 772.281 515.817Z" fill="#FBEAD7"/>
<path d="M189.781 376.327C193.202 373.605 196.964 370.884 200.386 367.821C217.835 353.529 234.258 339.917 262.232 348.863C270.419 351.615 275.867 357.431 281.315 363.247C288.124 370.774 294.594 377.617 306.886 376.966C317.813 376.311 331.838 365.765 345.181 355.218C360.232 343.65 375.968 331.744 388.941 332.118C412.838 332.861 422.633 374.87 428.715 399.803C429.391 402.535 430.068 404.926 430.403 407.316C431.756 412.44 432.769 416.88 433.783 420.978C442.904 459.23 443.916 464.012 491.051 456.622C495.491 455.951 500.273 455.28 504.372 454.266C525.208 450.906 542.286 447.877 552.506 456.778C559.66 462.94 563.045 474.554 562.657 492.985L560.95 492.98C561.337 474.891 558.292 463.961 551.479 458.141C541.599 449.582 525.203 452.613 504.367 456.314C499.927 456.986 495.486 457.998 491.046 458.67C442.545 466.056 441.194 460.25 432.074 421.656C431.06 417.558 430.048 412.777 428.695 407.995C428.018 405.604 427.682 403.213 427.007 400.481C421.265 375.891 411.468 334.906 388.936 334.166C376.304 333.793 360.911 345.359 346.2 356.927C331.833 367.813 318.491 378.36 306.881 379.014C293.905 379.663 286.755 372.136 279.945 364.951C274.837 359.476 269.731 353.661 261.884 351.252C234.935 342.308 218.512 355.92 201.405 369.871C197.984 372.593 194.562 375.657 190.8 378.378C167.881 395.727 149.088 401.482 133.394 397.005C106.783 389.087 93.5625 351.848 80.3381 315.975C78.6423 311.533 76.9464 307.092 75.592 302.651C69.1484 285.568 58.9249 278.033 46.6555 269.468C38.1357 263.303 29.6158 257.137 21.4469 247.218C8.85257 232.167 6.84216 217.144 4.15499 199.729C3.1472 193.241 2.1394 186.753 0.791058 179.923L1.81879 178.56C3.50769 185.733 4.51548 192.22 5.18186 198.707C7.86989 215.781 9.88114 230.463 22.1349 245.172C30.3038 255.091 38.8237 261.257 47.003 267.08C58.931 275.643 70.177 283.864 76.6197 301.288C78.3156 305.73 80.0114 310.171 81.3658 314.612C94.2496 350.143 107.472 386.699 133.059 394.615" fill="#8D7B76"/>
</svg>
